<svg xmlns="http://www.w3.org/2000/svg" width="50" height="50" viewBox="0 0 2543 1263" version="1.1"><path d="M 814.500 0.744 C 1046.794 1.425, 1209 1.428, 1209 0.750 C 1209 0.337, 1100.662 0.110, 968.250 0.244 C 835.837 0.379, 766.650 0.604, 814.500 0.744 M 1332.654 0.750 C 1332.236 1.428, 1495.246 1.425, 1727.500 0.744 C 1775.350 0.604, 1706.189 0.379, 1573.809 0.244 C 1441.429 0.110, 1332.909 0.337, 1332.654 0.750 M 1389.460 943.784 L 1205.452 1262.500 1389.807 1262.753 C 1491.203 1262.892, 1656.935 1262.892, 1758.101 1262.753 L 1942.040 1262.500 1758.455 944.500 C 1657.484 769.600, 1574.555 626.178, 1574.170 625.784 C 1573.784 625.390, 1490.664 768.490, 1389.460 943.784" stroke="none" fill="#b31424" fill-rule="evenodd"/><path d="M 366.500 628.156 C 167.400 973.065, 3.461 1257.005, 2.192 1259.134 L -0.116 1263.004 240.105 1262.752 L 480.326 1262.500 844.117 632.500 C 1044.203 286, 1207.929 2.163, 1207.954 1.750 C 1207.979 1.337, 1100.112 1.011, 968.250 1.024 L 728.500 1.049 366.500 628.156 M 1330.405 5.250 C 1329.005 7.588, 1165.100 291.425, 966.172 636 L 604.484 1262.500 843.492 1262.756 C 974.946 1262.897, 1082.990 1262.827, 1083.589 1262.599 C 1084.188 1262.372, 1194.438 1072.031, 1328.589 839.619 C 1462.740 607.207, 1572.870 417.163, 1573.322 417.300 C 1573.773 417.436, 1683.969 607.774, 1818.202 840.274 L 2062.260 1263 2302.154 1263 L 2542.048 1263 2540.274 1259.649 C 2539.298 1257.806, 2375.410 973.856, 2176.079 628.649 L 1813.657 1 1573.304 1 L 1332.951 1 1330.405 5.250" stroke="none" fill="#f3f3f3" fill-rule="evenodd"/></svg>