<svg xmlns="http://www.w3.org/2000/svg" width="50" height="50" viewBox="0 0 2543 1263" version="1.1">
    <path d="M 364.500 630.623 C 164.300 977.432, 0.350 1261.593, 0.167 1262.092 C -0.032 1262.634, 96.650 1263, 240.205 1263 L 480.576 1263 844.788 632.165 C 1045.105 285.206, 1209 1.031, 1209 0.665 C 1209 0.299, 1100.888 0.014, 968.750 0.031 L 728.500 0.062 364.500 630.623 M 1331.612 2.250 C 1330.149 4.545, 612.959 1246.781, 607.053 1257.250 L 603.809 1263 844.276 1263 L 1084.744 1263 1328.486 840.750 C 1462.544 608.512, 1572.514 418.205, 1572.864 417.844 C 1573.214 417.483, 1683.300 607.478, 1817.500 840.056 L 2061.500 1262.923 2302.155 1262.962 L 2542.811 1263 2504.848 1197.250 C 2483.969 1161.088, 2319.900 876.913, 2140.251 565.750 L 1813.616 0 1573.331 0 L 1333.046 0 1331.612 2.250" stroke="none" fill="#1c1c1c" fill-rule="evenodd"/>
    <path d="M 1389.347 943.728 L 1205.309 1262.500 1573.320 1262.751 C 1775.726 1262.890, 1941.495 1262.839, 1941.695 1262.638 C 1942.111 1262.222, 1576.326 628.170, 1574.548 626.228 C 1573.641 625.236, 1532.800 695.253, 1389.347 943.728" stroke="none" fill="#b41424" fill-rule="evenodd"/>
</svg>
